<svg width="37" height="37" viewBox="0 0 37 37" fill="none" xmlns="http://www.w3.org/2000/svg">
<path d="M36.8888 10.8726C36.7987 8.90335 36.4859 7.55853 36.0287 6.38196C35.5643 5.14751 34.836 4.02937 33.8949 3.10517C32.9709 2.16401 31.8525 1.43543 30.618 0.970787C29.4412 0.513763 28.0966 0.201272 26.1274 0.111785C24.1546 0.0214539 23.5242 0 18.5 0C13.4758 0 12.8454 0.0214539 10.8726 0.111221C8.90335 0.201272 7.55881 0.514045 6.38196 0.971352C5.14751 1.43572 4.02937 2.16401 3.10517 3.10517C2.16401 4.02909 1.43543 5.14723 0.970787 6.38168C0.513763 7.55853 0.201272 8.90335 0.111785 10.8723C0.0214539 12.8454 0 13.4756 0 18.4997C0 23.5242 0.0214539 24.1546 0.111785 26.1274C0.201554 28.0963 0.514327 29.4412 0.971634 30.618C1.436 31.8522 2.1643 32.9706 3.10544 33.8945C4.02937 34.8357 5.1478 35.564 6.38224 36.0284C7.55881 36.4859 8.90364 36.7984 10.8728 36.8885C12.8461 36.9785 13.4761 36.9997 18.5003 36.9997C23.5244 36.9997 24.1548 36.9785 26.1277 36.8885C28.097 36.7984 29.4414 36.4859 30.6183 36.0284C33.1033 35.0674 35.0678 33.1031 36.0287 30.618C36.4862 29.4412 36.7987 28.0963 36.8888 26.1274C36.9785 24.1542 37 23.5242 37 18.5C37 13.4756 36.9785 12.8454 36.8888 10.8726ZM33.5587 25.9758C33.4764 27.7796 33.175 28.7591 32.9218 29.411C32.2993 31.0245 31.0243 32.2996 29.4107 32.9221C28.7589 33.1753 27.7794 33.4768 25.9756 33.5589C24.0253 33.6481 23.44 33.6667 18.5 33.6667C13.5597 33.6667 12.9747 33.6481 11.0242 33.5589C9.22064 33.4768 8.24111 33.1753 7.58902 32.9221C6.78563 32.6254 6.05874 32.1526 5.46198 31.5381C4.84744 30.9413 4.37462 30.2146 4.07793 29.411C3.82471 28.7591 3.52324 27.7796 3.44108 25.9758C3.35217 24.0253 3.33326 23.44 3.33326 18.5003C3.33326 13.5603 3.35217 12.9754 3.44108 11.0244C3.52351 9.22064 3.82471 8.24111 4.07793 7.5893C4.37462 6.78563 4.84773 6.05874 5.46198 5.46198C6.05874 4.84744 6.78563 4.37462 7.5893 4.07821C8.24111 3.82471 9.22064 3.52351 11.0244 3.44108C12.9751 3.35217 13.5603 3.33326 18.5 3.33326H18.4997C23.4395 3.33326 24.0246 3.35217 25.9756 3.44137C27.7794 3.52351 28.7586 3.825 29.4107 4.07821C30.2141 4.37489 30.941 4.84773 31.5377 5.46198C32.1523 6.05874 32.6251 6.78563 32.9215 7.5893C33.175 8.24111 33.4764 9.22064 33.5587 11.0244C33.6476 12.9751 33.6665 13.5603 33.6665 18.5C33.6665 23.44 33.6478 24.0249 33.5587 25.9758Z" fill="#D9D9D9"/>
<path d="M18.4998 8.99988C13.2532 8.99988 9 13.2534 9 18.5C9 23.7466 13.2532 27.9998 18.4998 27.9998C23.7467 27.9998 28 23.7466 28 18.5C28 13.2534 23.7467 8.99988 18.4998 8.99988ZM18.4998 24.6666C15.0944 24.6663 12.3332 21.9056 12.3335 18.4996C12.3335 15.0942 15.0944 12.3331 18.5001 12.3331C21.9059 12.3334 24.6667 15.0942 24.6667 18.4996C24.6667 21.9056 21.9056 24.6666 18.4998 24.6666Z" fill="#D9D9D9"/>
<path d="M30.5964 8.62473C30.5964 9.85071 29.6024 10.8446 28.3765 10.8446C27.1502 10.8446 26.1562 9.85071 26.1562 8.62473C26.1562 7.39848 27.1502 6.40454 28.3765 6.40454C29.6024 6.40454 30.5964 7.39848 30.5964 8.62473Z" fill="#D9D9D9"/>
</svg>
